<?xml version="1.0" encoding="utf-8"?>
<!-- Generator: Adobe Illustrator 24.3.0, SVG Export Plug-In . SVG Version: 6.00 Build 0)  -->
<svg version="1.1" id="Capa_1" xmlns="http://www.w3.org/2000/svg" xmlns:xlink="http://www.w3.org/1999/xlink" x="0px" y="0px"
	 viewBox="0 0 500 500" style="enable-background:new 0 0 500 500;" xml:space="preserve">
<style type="text/css">
	.st0{fill-rule:evenodd;clip-rule:evenodd;fill:#006AFF;}
</style>
<path class="st0" d="M469.3,79.7c0,6.8,0.4,168-11.4,237.8c-15.8,91.7-193.4,177.4-200.9,181c-4.1,1.9-8.8,1.9-12.9,0
	c-7.5-3.6-184.9-89.4-200.7-181.1C31.2,247.7,31.7,86.5,31.7,79.7c0-4.7,2.2-9.1,5.8-12c3.6-2.8,8.5-3.9,12.9-2.8
	c41,6.5,62.6-8.1,90-26.5C167.5,20.5,198,0,250.4,0h0.1c52.4,0.1,82.9,20.5,109.8,38.6c27.4,18.4,49.1,32.9,90.6,26.3
	c8.5-1.4,16.6,4.4,18.1,12.9C469.1,78.5,469.2,79.1,469.3,79.7z M212.7,297.8l-50.9-51.5c-5.8-5.9-15.3-6-21.2-0.2
	c-0.1,0.1-0.1,0.1-0.2,0.2c-5.9,6-5.9,15.7,0,21.6l61.7,62.4c5.8,5.9,15.4,5.9,21.3,0.1c0,0,0,0,0.1-0.1l137.3-138.9
	c5.9-6,5.9-15.7,0-21.6c-5.8-5.9-15.3-6-21.2-0.2c-0.1,0.1-0.1,0.1-0.2,0.2C339.2,169.7,212.7,297.8,212.7,297.8z"/>
</svg>
